<?xml version="1.0" encoding="UTF-8"?><svg width="43px" height="43px" viewBox="0 0 24 24" stroke-width="0.9" fill="none" xmlns="http://www.w3.org/2000/svg" color="#000000"><path d="M3 18a1 1 0 100-2 1 1 0 000 2z" fill="#000000" stroke="#DCD4C9" stroke-width="0.9" stroke-linecap="round" stroke-linejoin="round"></path><path d="M21 7.353v9.294a.6.6 0 01-.309.525l-8.4 4.666a.6.6 0 01-.582 0l-8.4-4.666A.6.6 0 013 16.647V7.353a.6.6 0 01.309-.524l8.4-4.667a.6.6 0 01.582 0l8.4 4.667a.6.6 0 01.309.524z" stroke="#DCD4C9" stroke-width="0.9" stroke-linecap="round" stroke-linejoin="round"></path><path d="M3.528 7.294l8.18 4.544a.6.6 0 00.583 0l8.209-4.56M12 21v-9" stroke="#DCD4C9" stroke-width="0.9" stroke-linecap="round" stroke-linejoin="round"></path></svg>